<svg width="24" height="24" viewBox="0 0 24 24" fill="none" xmlns="http://www.w3.org/2000/svg">
<path d="M12 14C13.1046 14 14 13.1046 14 12C14 10.8954 13.1046 10 12 10C10.8954 10 10 10.8954 10 12C10 13.1046 10.8954 14 12 14Z" stroke="white" stroke-width="1.5"/>
<path d="M5.39927 5.88136L5.89927 5.01436C5.70297 4.90086 5.47392 4.85745 5.2497 4.89125C5.02548 4.92505 4.8194 5.03404 4.66527 5.20036L5.39927 5.88136ZM3.40027 9.34536L2.44427 9.05036C2.37773 9.26678 2.3866 9.49937 2.46944 9.71009C2.55227 9.92081 2.70417 10.0972 2.90027 10.2104L3.40027 9.34536ZM3.39827 14.6564L2.89827 13.7904C2.70193 13.9038 2.54995 14.0805 2.46728 14.2917C2.3846 14.5028 2.37614 14.7358 2.44327 14.9524L3.39827 14.6564ZM5.39827 18.1204L4.66427 18.8004C4.8184 18.9667 5.02448 19.0757 5.2487 19.1095C5.47292 19.1433 5.70197 19.0999 5.89827 18.9864L5.39827 18.1204ZM9.99827 20.7754H9.00027C9.00028 21.002 9.07727 21.2219 9.21862 21.399C9.35997 21.5762 9.5573 21.7001 9.77827 21.7504L10.0013 20.7754H9.99827ZM13.9993 20.7774L14.2223 21.7524C14.4431 21.7019 14.6402 21.5779 14.7813 21.4008C14.9225 21.2236 14.9993 21.0038 14.9993 20.7774H13.9993ZM18.6003 18.1214L18.1003 18.9874C18.2965 19.1006 18.5253 19.1439 18.7493 19.1101C18.9733 19.0763 19.1792 18.9674 19.3333 18.8014L18.6003 18.1214ZM20.5983 14.6554L21.5543 14.9504C21.6208 14.7339 21.6119 14.5013 21.5291 14.2906C21.4463 14.0799 21.2944 13.9035 21.0983 13.7904L20.5983 14.6554ZM20.6003 9.34436L21.1003 10.2104C21.2966 10.0969 21.4486 9.92018 21.5313 9.70904C21.6139 9.49791 21.6224 9.26494 21.5553 9.04836L20.6003 9.34436ZM18.6003 5.87936L19.3343 5.20036C19.1803 5.03388 18.9743 4.9247 18.75 4.89072C18.5258 4.85674 18.2967 4.89998 18.1003 5.01336L18.6003 5.87936ZM14.0003 3.22636H15.0003C15.0003 2.99987 14.9235 2.78008 14.7823 2.60295C14.6412 2.42583 14.4441 2.30187 14.2233 2.25136L14.0003 3.22636ZM10.0003 3.22436L9.77727 2.24936C9.55649 2.29987 9.35938 2.42383 9.21823 2.60095C9.07708 2.77808 9.00023 2.99787 9.00027 3.22436H10.0003ZM4.35627 9.64036C4.70944 8.49334 5.31646 7.44061 6.13227 6.56036L4.66527 5.20036C3.64558 6.30073 2.88681 7.61762 2.44527 9.05136L4.35627 9.64136V9.64036ZM5.07227 16.0014C4.77256 15.4832 4.53173 14.9331 4.35427 14.3614L2.44427 14.9534C2.66127 15.6544 2.95927 16.3414 3.34027 17.0014L5.07227 16.0014ZM6.13227 17.4424C5.72671 17.003 5.37051 16.5196 5.07227 16.0014L3.34027 17.0014C3.72027 17.6614 4.16727 18.2624 4.66527 18.8014L6.13227 17.4424ZM13.7783 19.8034C12.6078 20.0698 11.3924 20.0691 10.2223 19.8014L9.77727 21.7514C11.2403 22.086 12.7599 22.0867 14.2233 21.7534L13.7783 19.8034ZM19.6443 14.3624C19.2911 15.5094 18.6841 16.5621 17.8683 17.4424L19.3343 18.8024C20.354 17.702 21.1127 16.3861 21.5543 14.9524L19.6443 14.3624ZM18.9283 8.00136C19.2343 8.53136 19.4733 9.08136 19.6463 9.64136L21.5563 9.04936C21.3353 8.33526 21.0348 7.64828 20.6603 7.00136L18.9283 8.00136ZM17.8683 6.56036C18.2653 6.99036 18.6223 7.47036 18.9283 8.00136L20.6603 7.00136C20.2871 6.35386 19.8426 5.75011 19.3353 5.20136L17.8673 6.56136L17.8683 6.56036ZM10.2223 4.19936C11.3927 3.9329 12.6081 3.93358 13.7783 4.20136L14.2233 2.25136C12.7606 1.91689 11.2403 1.91621 9.77727 2.24936L10.2223 4.19936ZM11.0003 5.07336V3.22336H9.00027V5.07336H11.0003ZM7.50027 5.93936L5.89927 5.01436L4.89927 6.74636L6.50027 7.67136L7.50027 5.93936ZM4.50027 12.8674L2.89927 13.7914L3.89927 15.5234L5.50027 14.5994L4.50027 12.8674ZM5.50027 9.40336L3.90027 8.48036L2.90027 10.2124L4.50027 11.1354L5.50027 9.40336ZM11.0003 20.7764V18.9294H9.00027V20.7754L11.0003 20.7764ZM6.50027 16.3314L4.89927 17.2564L5.89927 18.9884L7.49927 18.0634L6.50027 16.3314ZM19.1013 17.2564L17.5003 16.3314L16.5003 18.0634L18.1013 18.9884L19.1013 17.2564ZM15.0003 20.7784V18.9294H13.0003V20.7794L15.0003 20.7784ZM20.1013 8.47836L18.5003 9.40336L19.5003 11.1354L21.1003 10.2104L20.1013 8.47836ZM21.0993 13.7904L19.5003 12.8674L18.5003 14.5994L20.1003 15.5224L21.0993 13.7904ZM15.0003 5.07336V3.22636H13.0003V5.07336H15.0003ZM18.1013 5.01436L16.5003 5.93936L17.5003 7.67136L19.1013 6.74636L18.1013 5.01436ZM13.0003 5.07336C13.0003 7.38336 15.5003 8.82636 17.5003 7.67136L16.5003 5.93936C16.3483 6.02713 16.1758 6.07333 16.0003 6.07334C15.8247 6.07334 15.6523 6.02713 15.5003 5.93937C15.3483 5.8516 15.222 5.72537 15.1343 5.57335C15.0465 5.42134 15.0003 5.2489 15.0003 5.07336H13.0003ZM18.5003 9.40336C16.5003 10.5584 16.5003 13.4444 18.5003 14.5994L19.5003 12.8674C19.3483 12.7796 19.222 12.6534 19.1343 12.5013C19.0465 12.3493 19.0003 12.1769 19.0003 12.0014C19.0003 11.8258 19.0465 11.6534 19.1343 11.5014C19.222 11.3494 19.3483 11.2231 19.5003 11.1354L18.5003 9.40336ZM17.5003 16.3314C15.5003 15.1774 13.0003 16.6204 13.0003 18.9294H15.0003C15.0003 18.7538 15.0465 18.5814 15.1343 18.4294C15.222 18.2774 15.3483 18.1511 15.5003 18.0634C15.6523 17.9756 15.8247 17.9294 16.0003 17.9294C16.1758 17.9294 16.3483 17.9756 16.5003 18.0634L17.5003 16.3314ZM11.0003 18.9294C11.0003 16.6194 8.50027 15.1764 6.50027 16.3314L7.49927 18.0634C7.65129 17.9756 7.82473 17.9294 8.00027 17.9294C8.1758 17.9294 8.34824 17.9756 8.50026 18.0634C8.65228 18.1511 8.77852 18.2774 8.86629 18.4294C8.95406 18.5814 9.00027 18.7538 9.00027 18.9294H11.0003ZM5.50027 14.5994C7.50027 13.4444 7.50027 10.5584 5.50027 9.40336L4.50027 11.1354C4.65228 11.2231 4.77851 11.3494 4.86627 11.5014C4.95403 11.6534 5.00023 11.8258 5.00023 12.0014C5.00023 12.1769 4.95403 12.3493 4.86627 12.5013C4.77851 12.6534 4.65228 12.7796 4.50027 12.8674L5.50027 14.5994ZM9.00027 5.07336C9.00027 5.2489 8.95406 5.42134 8.86629 5.57335C8.77852 5.72537 8.65228 5.8516 8.50026 5.93937C8.34824 6.02713 8.1758 6.07334 8.00027 6.07334C7.82473 6.07333 7.65229 6.02713 7.50027 5.93936L6.50027 7.67136C8.50027 8.82536 11.0003 7.38236 11.0003 5.07336H9.00027Z" fill="white"/>
</svg>
