<svg width="24" height="24" viewBox="0 0 24 24" fill="none" xmlns="http://www.w3.org/2000/svg">
<path d="M5 20.1383V20.138V5C5 4.46957 5.21071 3.96086 5.58579 3.58579C5.96086 3.21071 6.46957 3 7 3H17C17.5304 3 18.0391 3.21071 18.4142 3.58579C18.7893 3.96086 19 4.46957 19 5V20.138V20.1383C19 20.2259 18.9771 20.312 18.9334 20.3879C18.8897 20.4638 18.8268 20.5269 18.7511 20.5709C18.6753 20.6149 18.5894 20.6382 18.5018 20.6385C18.4143 20.6388 18.3282 20.6162 18.2522 20.5728C18.2521 20.5727 18.2521 20.5727 18.252 20.5727L12.9922 17.5668L12.992 17.5667C12.6899 17.3941 12.3479 17.3033 12 17.3033C11.6521 17.3033 11.3101 17.3941 11.008 17.5667L11.0078 17.5668L5.748 20.5727C5.74794 20.5727 5.74788 20.5727 5.74783 20.5728C5.67181 20.6162 5.58575 20.6388 5.49822 20.6385C5.41064 20.6382 5.32467 20.6149 5.24893 20.5709C5.17318 20.5269 5.11032 20.4638 5.06663 20.3879C5.02295 20.312 4.99997 20.2259 5 20.1383Z" stroke="white" stroke-width="2"/>
</svg>
